<?xml version="1.0" standalone="no"?>
<!DOCTYPE svg PUBLIC "-//W3C//DTD SVG 20010904//EN"
 "http://www.w3.org/TR/2001/REC-SVG-20010904/DTD/svg10.dtd">
<svg version="1.0" xmlns="http://www.w3.org/2000/svg"
 width="512.000000pt" height="512.000000pt" viewBox="0 0 512.000000 512.000000"
 preserveAspectRatio="xMidYMid meet">
<metadata>
Created by potrace 1.11, written by Peter Selinger 2001-2013
</metadata>
<g transform="translate(0.000000,512.000000) scale(0.100000,-0.100000)"
fill="#000000" stroke="none">
<path d="M1515 5110 c-100 -15 -130 -21 -209 -41 -477 -119 -883 -438 -1109
-870 -76 -146 -141 -325 -163 -449 -32 -185 -33 -204 -33 -1200 1 -991 1
-1000 32 -1170 68 -372 302 -754 612 -1002 244 -194 554 -327 854 -366 73 -9
2049 -9 2121 0 361 46 712 217 976 474 148 144 265 305 353 488 51 105 115
283 125 350 4 21 9 42 11 47 3 4 12 54 20 111 11 84 13 286 11 1108 -1 553 -6
1025 -10 1050 -29 179 -82 350 -153 498 -47 99 -102 195 -115 200 -4 2 -8 8
-8 13 0 18 -115 162 -196 246 -172 177 -374 312 -604 403 -95 38 -253 83 -330
95 -19 2 -62 9 -95 14 -71 11 -2015 12 -2090 1z"/>
</g>
</svg>
